<svg width="59" height="59" viewBox="0 0 59 59" fill="none" xmlns="http://www.w3.org/2000/svg">
<g id="cart">
<path id="Vector" d="M20.8969 46.7083C20.1676 46.7083 19.4546 46.9246 18.8482 47.3298C18.2418 47.735 17.7692 48.3109 17.4901 48.9847C17.211 49.6585 17.138 50.3999 17.2802 51.1152C17.4225 51.8305 17.7737 52.4876 18.2894 53.0033C18.8051 53.519 19.4622 53.8702 20.1775 54.0125C20.8928 54.1548 21.6342 54.0817 22.308 53.8026C22.9818 53.5235 23.5577 53.0509 23.9629 52.4445C24.3681 51.8381 24.5844 51.1252 24.5844 50.3958C24.5844 49.4179 24.1959 48.4799 23.5043 47.7884C22.8128 47.0968 21.8749 46.7083 20.8969 46.7083ZM46.7094 39.3333H17.2094C16.5574 39.3333 15.9321 39.0743 15.4711 38.6133C15.0101 38.1523 14.7511 37.527 14.7511 36.875C14.7511 36.223 15.0101 35.5977 15.4711 35.1367C15.9321 34.6757 16.5574 34.4167 17.2094 34.4167H38.0836C39.685 34.4115 41.2416 33.8875 42.5202 32.9232C43.7987 31.9589 44.7303 30.6062 45.1754 29.0679L49.0729 15.4258C49.1775 15.0599 49.1957 14.6748 49.1261 14.3007C49.0565 13.9266 48.9011 13.5737 48.6719 13.2699C48.4428 12.9661 48.1463 12.7196 47.8058 12.5499C47.4652 12.3801 47.0899 12.2917 46.7094 12.2917H16.5679C16.059 10.8593 15.1209 9.61875 13.8814 8.73892C12.6418 7.85909 11.1612 7.38282 9.64114 7.375H7.37606C6.72407 7.375 6.09878 7.634 5.63775 8.09503C5.17673 8.55606 4.91772 9.18134 4.91772 9.83333C4.91772 10.4853 5.17673 11.1106 5.63775 11.5716C6.09878 12.0327 6.72407 12.2917 7.37606 12.2917H9.64114C10.1748 12.2935 10.6935 12.4682 11.1196 12.7896C11.5456 13.1109 11.8562 13.5616 12.0046 14.0742L12.387 15.4134L12.3875 15.4258L16.4208 29.542C14.544 29.7439 12.816 30.6577 11.5928 32.0953C10.3695 33.5329 9.74396 35.3848 9.84503 37.2697C9.94609 39.1546 10.766 40.9291 12.136 42.2276C13.506 43.5261 15.3218 44.25 17.2094 44.25H46.7094C47.3614 44.25 47.9867 43.991 48.4477 43.53C48.9087 43.0689 49.1677 42.4437 49.1677 41.7917C49.1677 41.1397 48.9087 40.5144 48.4477 40.0534C47.9867 39.5923 47.3614 39.3333 46.7094 39.3333ZM43.4504 17.2083L40.4483 27.7163C40.3 28.2293 39.9894 28.6804 39.5631 29.002C39.1367 29.3236 38.6176 29.4983 38.0836 29.5H21.5223L20.8955 27.3067L18.0118 17.2083H43.4504ZM40.5636 46.7083C39.8342 46.7083 39.1213 46.9246 38.5149 47.3298C37.9085 47.735 37.4358 48.3109 37.1567 48.9847C36.8777 49.6585 36.8046 50.3999 36.9469 51.1152C37.0892 51.8305 37.4404 52.4876 37.9561 53.0033C38.4718 53.519 39.1289 53.8702 39.8442 54.0125C40.5595 54.1548 41.3009 54.0817 41.9747 53.8026C42.6485 53.5235 43.2244 53.0509 43.6296 52.4445C44.0348 51.8381 44.2511 51.1252 44.2511 50.3958C44.2511 49.4179 43.8626 48.4799 43.171 47.7884C42.4795 47.0968 41.5415 46.7083 40.5636 46.7083Z" fill="#105454"/>
</g>
</svg>
