<svg width="53" height="53" viewBox="0 0 53 53" fill="none" xmlns="http://www.w3.org/2000/svg">
<g id="profile">
<g id="Layer 3">
<path id="Vector" d="M26.4989 2.48438C21.6762 2.48852 16.9665 3.94455 12.9829 6.6629C8.99934 9.38125 5.92646 13.236 4.16436 17.7252C2.40226 22.2145 2.03258 27.1302 3.10343 31.8325C4.17429 36.5348 6.63607 40.8058 10.1683 44.0894L11.7417 43.2612C14.1598 41.9694 18.1266 39.8494 18.9381 39.3442C19.2953 39.1615 19.6066 38.9006 19.849 38.5808C20.0913 38.2611 20.2583 37.8908 20.3377 37.4975V34.8309C19.0529 33.1568 18.1103 31.2462 17.5634 29.208C17.549 29.1435 17.5142 29.0854 17.4641 29.0423C17.1588 28.8101 16.9033 28.5189 16.7127 28.186C16.5221 27.8531 16.4002 27.4854 16.3544 27.1045V22.8977C16.4811 22.443 16.6918 22.0161 16.9755 21.6389C17.0411 21.5567 17.0865 21.4603 17.108 21.3573V16.695C17.0974 15.8122 17.2634 14.9362 17.5962 14.1185C17.9289 13.3008 18.4218 12.5578 19.0458 11.9333C20.7766 10.277 23.2692 9.39922 26.4989 9.39922C29.7286 9.39922 32.1716 10.2273 33.952 11.9333C34.5775 12.5571 35.0719 13.2998 35.4061 14.1175C35.7403 14.9353 35.9076 15.8116 35.8981 16.695V21.3573C35.9219 21.4677 35.9732 21.5702 36.0472 21.6555C36.3303 22.0246 36.5359 22.4471 36.6517 22.8977V23.1047V27.1045C36.6046 27.4892 36.4806 27.8604 36.2871 28.1961C36.0936 28.5319 35.8346 28.8253 35.5255 29.0589C35.4893 29.0957 35.4635 29.1414 35.4509 29.1914C34.9052 31.2367 33.9595 33.1534 32.6684 34.8309V37.5058C32.7495 37.8984 32.9172 38.268 33.1593 38.5875C33.4014 38.907 33.7119 39.1683 34.068 39.3525C34.8961 39.8577 38.8462 41.9694 41.2809 43.2612L42.8461 44.0894C46.3793 40.8048 48.8415 36.5324 49.9118 31.8285C50.9822 27.1247 50.6111 22.2075 48.847 17.7175C47.0828 13.2276 44.0073 9.373 40.0212 6.65591C36.035 3.93883 31.323 2.4852 26.4989 2.48438Z" fill="#105454"/>
<path id="Vector_2" d="M33.1735 40.7522C32.5744 40.4283 32.0631 39.9636 31.6837 39.398C31.3043 38.8325 31.0681 38.1831 30.9956 37.506V34.1935L31.2109 33.9616C32.4414 32.4297 33.3333 30.6544 33.8278 28.7527C33.9248 28.3945 34.1198 28.0704 34.3909 27.8169C34.6461 27.6216 34.8483 27.3653 34.9788 27.0716V23.1877C34.9215 22.993 34.8289 22.8106 34.7056 22.6494C34.393 22.2771 34.215 21.8103 34.2004 21.3244V16.6952C34.2097 16.0343 34.087 15.3783 33.8396 14.7654C33.5922 14.1525 33.225 13.5952 32.7595 13.126C31.3434 11.7513 29.2317 11.0557 26.4988 11.0557C23.766 11.0557 21.6543 11.7513 20.2382 13.126C19.7712 13.5945 19.4025 14.1515 19.1536 14.7644C18.9048 15.3773 18.7808 16.0337 18.789 16.6952V21.3575C18.7793 21.8365 18.607 22.2979 18.3004 22.666C18.1752 22.8345 18.0774 23.0218 18.0106 23.2208V27.1047C18.1434 27.3831 18.339 27.6269 18.582 27.8169C18.8653 28.0733 19.0669 28.4074 19.1617 28.7775C19.6652 30.6674 20.5595 32.4306 21.7868 33.9533L21.9938 34.1852V37.4977C21.9206 38.1747 21.6842 38.8237 21.3048 39.3892C20.9255 39.9546 20.4145 40.4195 19.8159 40.7439C18.9878 41.2408 15.5759 43.0958 13.1246 44.396L11.5181 45.2241C15.7684 48.6333 21.0543 50.4913 26.503 50.4913C31.9517 50.4913 37.2375 48.6333 41.4879 45.2241L39.8813 44.396C37.4301 43.0627 33.952 41.2491 33.1735 40.7522Z" fill="#105454"/>
</g>
</g>
</svg>
